{"title":"The Lion King 1994 DVDrip Dutch Klam","uid":6740633,"size":1499801049,"categoryP":"video","categoryS":"movies","magnet":"?xt=urn:btih:0764e8a0cb9fb9e62f0cb57b0e005da323043f6c&amp;dn=The+Lion+King+1994+DVDrip+Dutch+Klam&amp;tr=udp%3A%2F%2Ftracker.openbittorrent.com%3A80&amp;tr=udp%3A%2F%2Fopen.demonii.com%3A1337&amp;tr=udp%3A%2F%2Ftracker.coppersurfer.tk%3A6969&amp;tr=udp%3A%2F%2Fexodus.desync.com%3A6969","seeders":6,"leechers":2,"uploader":"Klambake","files":-1,"time":1318498690,"description":"Nederlands gesproken,\nIn Afrika wordt de jonge leeuw Simba geboren als zoon van de leeuwenkoning Mufasa. Dat zint Mufasa's jaloerse broer Scar absoluut niet, die nu niet langer de eerste troonopvolger is. Terwijl Simba een onbezorgde jeugd geniet in zijn vaders koninkrijk, smeedt Scar samen met een groep hyena's een plan om zowel Mufasa als Simba uit de weg te ruimen, en zo zelf de macht te kunnen grijpen.\n\nDutch Spoken,\nTricked into thinking he killed his father, a guilt ridden lion cub flees into exile and abandons his identity as the future King. \n\n------------------ Dutch Friends ------------------\nYou can find my Friends at: http://www.Film-Test.nl \n------ They got my dutch subs ----- and more ------\n\nGeneral:\n\nComplete name                    : The Lion King\\The Lion King.avi\nFormat                           : AVI\nFormat/Info                      : Audio Video Interleave\nFile size                        : 1.40 GiB\nDuration                         : 1h 25mn\nOverall bit rate                 : 2 345 Kbps\n\nVideo:\n\nFormat                           : MPEG-4 Visual\nFormat profile                   : Simple@L3\nFormat settings, BVOP            : No\nFormat settings, QPel            : No\nFormat settings, GMC             : No warppoints\nFormat settings, Matrix          : Default (H.263)\nCodec ID                         : XVID\nCodec ID/Hint                    : XviD\nDuration                         : 1h 25mn\nBit rate                         : 1 950 Kbps\nWidth                            : 704 pixels\nHeight                           : 424 pixels\nDisplay aspect ratio             : 1.660\nFrame rate                       : 25.000 fps\nColor space                      : YUV\nChroma subsampling               : 4:2:0\nBit depth                        : 8 bits\nScan type                        : Progressive\nCompression mode                 : Lossy\nBits/(Pixel*Frame)               : 0.261\nStream size                      : 1.16 GiB (83%)\nWriting library                  : XviD 1.1.2 (UTC 2006-11-01)\n\nAudio:\n\nFormat                           : AC-3\nFormat/Info                      : Audio Coding 3\nMode extension                   : CM (complete main)\nCodec ID                         : 2000\nDuration                         : 1h 25mn\nBit rate mode                    : Constant\nBit rate                         : 384 Kbps\nChannel(s)                       : 6 channels\nChannel positions                : Front: L C R, Side: L R, LFE\nSampling rate                    : 48.0 KHz\nBit depth                        : 16 bits\nCompression mode                 : Lossy\nStream size                      : 234 MiB (16%)\nAlignment                        : Aligned on interleaves\nInterleave, duration             : 32 ms (0.80 video frame)\nInterleave, preload duration     : 928 ms\n\n","torrent":{"xt":"urn:btih:0764e8a0cb9fb9e62f0cb57b0e005da323043f6c","amp;dn":"The+Lion+King+1994+DVDrip+Dutch+Klam","amp;tr":["udp%3A%2F%2Ftracker.openbittorrent.com%3A80","udp%3A%2F%2Fopen.demonii.com%3A1337","udp%3A%2F%2Ftracker.coppersurfer.tk%3A6969","udp%3A%2F%2Fexodus.desync.com%3A6969"],"infoHash":"0764e8a0cb9fb9e62f0cb57b0e005da323043f6c","infoHashBuffer":{"type":"Buffer","data":[7,100,232,160,203,159,185,230,47,12,181,123,14,0,93,163,35,4,63,108]},"announce":[],"urlList":[]}}